# xmcd
#
# Track frame offsets: 
#        150
#        19214
#        51282
#        87044
#        113134
#        146974
#        188809
#        198780
#        213553
#        230893
#        248056
#        275151
#
# Disc length: 4186 seconds
#
# Revision: 0
# Processed by: cddbd v1.5.2PL0 Copyright (c) Steve Scherf et al.
# Submitted via: ExactAudioCopy v0.95b4
#
DISCID=b510580c
DTITLE=Various Artist - Man Of A Thousand Faces
DYEAR=1975
DGENRE=Blues
TTITLE0=Eric Clapton and Leon Russel - Jamming With Eric
TTITLE1=Eric Clapton and Leon Russel - Falling In Love Again
TTITLE2=Eric Clapton and Leon Russel - Down On The Bottom
TTITLE3=Eric Clapton and Leon Russel - Jam
TTITLE4=Eric Clapton and Leon Russel - Paint It, Black
TTITLE5=Eric Clapton and Leon Russel - Can't Stand Alone
TTITLE6=Eric Clapton and John Mayall's Bluesbreakers ft. Jack Bruce - Ma
TTITLE6=udie
TTITLE7=Eric Clapton and John Mayall's Bluesbreakers ft. Jack Bruce - It
TTITLE7=Hurts To Be In Love
TTITLE8=Eric Clapton and John Mayall's Bluesbreakers ft. Jack Bruce - By
TTITLE8=e Bye Bird
TTITLE9=Eric Clapton and John Mayall's Bluesbreakers ft. Jack Bruce - Ho
TTITLE9=ochie Coochie Man
TTITLE10=Eric Clapton and Santana and Friends - Crossroads
TTITLE11=Eric Clapton and Santana and Friends - Jam
EXTD=
EXTT0=
EXTT1=
EXTT2=
EXTT3=
EXTT4=
EXTT5=
EXTT6=
EXTT7=
EXTT8=
EXTT9=
EXTT10=
EXTT11=
PLAYORDER=
